<svg width="24" height="24" viewBox="0 0 24 24" fill="none" xmlns="http://www.w3.org/2000/svg">
<path d="M19.5698 5.57401C19.1324 5.13643 18.6131 4.78931 18.0415 4.55248C17.47 4.31565 16.8574 4.19376 16.2387 4.19376C15.62 4.19376 15.0073 4.31565 14.4358 4.55248C13.8642 4.78931 13.3449 5.13643 12.9075 5.57401L11.9998 6.48173L11.0921 5.57401C10.2086 4.69054 9.01039 4.19421 7.76098 4.19421C6.51156 4.19421 5.31332 4.69054 4.42985 5.57401C3.54638 6.45748 3.05005 7.65573 3.05005 8.90514C3.05005 10.1546 3.54638 11.3528 4.42985 12.2363L5.33756 13.144L11.9998 19.8062L18.6621 13.144L19.5698 12.2363C20.0074 11.7989 20.3545 11.2796 20.5913 10.708C20.8282 10.1365 20.95 9.52383 20.95 8.90514C20.95 8.28646 20.8282 7.67383 20.5913 7.10226C20.3545 6.5307 20.0074 6.01139 19.5698 5.57401V5.57401Z" stroke="#414242" stroke-width="1.5" stroke-linecap="round" stroke-linejoin="round"/>
</svg>
