<svg width="20" height="18" viewBox="0 0 20 18" fill="none" xmlns="http://www.w3.org/2000/svg">
<path d="M17.4974 2.37839C17.0607 1.9414 16.5421 1.59475 15.9713 1.35824C15.4005 1.12173 14.7887 1 14.1708 1C13.553 1 12.9412 1.12173 12.3704 1.35824C11.7996 1.59475 11.281 1.9414 10.8442 2.37839L9.93769 3.28488L9.03121 2.37839C8.14893 1.49612 6.9523 1.00046 5.70457 1.00046C4.45684 1.00046 3.26022 1.49612 2.37794 2.37839C1.49566 3.26067 1 4.4573 1 5.70503C1 6.95276 1.49566 8.14939 2.37794 9.03166L3.28442 9.93815L9.93769 16.5914L16.591 9.93815L17.4974 9.03166C17.9344 8.59488 18.2811 8.07627 18.5176 7.50548C18.7541 6.93468 18.8758 6.32288 18.8758 5.70503C18.8758 5.08718 18.7541 4.47537 18.5176 3.90458C18.2811 3.33379 17.9344 2.81518 17.4974 2.37839V2.37839Z" stroke="#F5F5F5" stroke-width="1.5" stroke-linecap="round" stroke-linejoin="round"/>
<rect x="11.0059" y="7.67157" width="8.99413" height="8.99413" rx="4.49707" fill="#F5F5F5"/>
<path fill-rule="evenodd" clip-rule="evenodd" d="M15.9031 10.2397C15.9031 10.0188 15.724 9.83972 15.5031 9.83972C15.2822 9.83972 15.1031 10.0188 15.1031 10.2397V11.7688H13.5741C13.3532 11.7688 13.1741 11.9479 13.1741 12.1688C13.1741 12.3897 13.3532 12.5688 13.5741 12.5688H15.1031V14.0975C15.1031 14.3185 15.2822 14.4975 15.5031 14.4975C15.724 14.4975 15.9031 14.3185 15.9031 14.0975V12.5688H17.4319C17.6528 12.5688 17.8319 12.3897 17.8319 12.1688C17.8319 11.9479 17.6528 11.7688 17.4319 11.7688H15.9031V10.2397Z" fill="#1CC8EE"/>
</svg>
